<svg width="80" height="80" viewBox="0 0 80 80" fill="none" xmlns="http://www.w3.org/2000/svg">
<path d="M34.4975 44.0832C31.2791 37.0273 25.2959 31.6986 17.7634 29.7108C15.3481 29.084 12.8484 28.7714 10.3764 28.8526L11.394 27.7997C11.5473 31.1591 12.3473 34.4771 13.8354 37.4901C16.7289 43.1974 22.1588 48.5001 28.3182 50.5062C30.6615 51.2143 33.0936 51.3568 35.2959 50.3422C37.3389 49.3951 38.6737 47.5131 39.7787 45.5836C41.9059 41.7461 43.5013 37.3752 46.4484 33.9545C47.0538 33.2572 47.7542 32.5292 48.4592 31.9315C51.3373 29.435 55.0906 28.0112 58.876 27.7645C62.9036 27.4656 66.8653 28.376 70.6094 29.7154L70.5312 30.6196C69.9733 36.4878 67.3634 42.1599 63.086 46.2334C57.7281 51.4181 49.7879 53.6081 42.5404 52.2135C47.3082 52.6196 52.1956 51.671 56.4025 49.3936C63.3312 45.6373 67.7159 38.2641 68.1741 30.4526L68.9864 31.6603C61.7603 29.4028 53.8247 29.6081 48.6676 35.8273C45.2745 39.8947 43.9856 45.1438 40.8469 49.4319C39.8185 50.7974 38.4561 52.0817 36.8975 52.8679C36.6982 52.9875 36.404 53.0947 36.1956 53.1898L35.84 53.3399L35.4753 53.458C31.9212 54.6549 28.053 53.7813 24.8193 52.215C21.4952 50.5783 18.5879 48.1966 16.145 45.4304C14.335 43.3522 12.7657 41.0534 11.6254 38.5369C9.9197 34.8419 9.2561 30.7898 9.33426 26.7852L10.358 26.7974C15.1902 26.8725 20.0055 28.2457 24.0867 30.8373C28.9312 33.8825 32.6783 38.6779 34.4975 44.0832Z" fill="#202020"/>
</svg>
